. 
  
http://www.torrentday.com/        :     The Hottest Private Tracker On The Net!!!
 
http://www.torrentday.com          :     Once & For all ;)


               www . TorrentDay . Com 

(((((((((((((= Enjoy No RAR releases =))))))))))))))))))))


...................................NFO:....................................

.[img]http://img191.imageshack.us/img191/5780/ispitonyourgrave.jpg[/img]

I Spit On Your Grave UNRATED 2010 BDRip XVID AC3 HQ Hive-CM8



[b]Thx Hive

CM8 Doing It Right The First Time :D

Why download a touched up rip of a rip BRrip
Get the real deal BDRip
Enjoy

Source US Bluray

Video: 720x304 @bitrate 1700 2pass
Audio: True HD AC3 640 to AC3 5.1 @448
Sample: yes included
Subs: yes english in srt /subs[/b]

 
http://www.imdb.com/title/tt1242432/


General
Complete name                    : I.Spit.On.Your.Grave.UNRATED.2010.BDRip.XVID.AC3.HQ.Hive-CM8.avi
Format                           : AVI
Format/Info                      : Audio Video Interleave
File size                        : 1.63 GiB
Duration                         : 1h 48mn
Overall bit rate                 : 2 157 Kbps
Writing application              : Nandub v1.0rc2
Writing library                  : Nandub build 1853/release

Video
ID                               : 0
Format                           : MPEG-4 Visual
Format profile                   : Advanced Simple@L5
Format settings, BVOP            : Yes
Format settings, QPel            : Yes
Format settings, GMC             : No warppoints
Format settings, Matrix          : Default (H.263)
Muxing mode                      : Packed bitstream
Codec ID                         : XVID
Codec ID/Hint                    : XviD
Duration                         : 1h 48mn
Bit rate                         : 1 700 Kbps
Width                            : 720 pixels
Height                           : 304 pixels
Display aspect ratio             : 2.35:1
Frame rate                       : 23.976 fps
Color space                      : YUV
Chroma subsampling               : 4:2:0
Bit depth                        : 8 bits
Scan type                        : Progressive
Bits/(Pixel*Frame)               : 0.324
Stream size                      : 1.29 GiB (79%)
Writing library                  : XviD 1.2.1 (UTC 2008-12-04)

Audio
ID                               : 1
Format                           : AC-3
Format/Info                      : Audio Coding 3
Mode extension                   : CM (complete main)
Codec ID                         : 2000
Duration                         : 1h 48mn
Bit rate mode                    : Constant
Bit rate                         : 448 Kbps
Channel(s)                       : 6 channels
Channel positions                : Front: L C R, Side: L R, LFE
Sampling rate                    : 48.0 KHz
Bit depth                        : 16 bits
Stream size                      : 347 MiB (21%)
Alignment                        : Split accross interleaves
Interleave, duration             : 42 ms (1.00 video frame)
Interleave, preload duration     : 500 ms





Sarah Butler 	...Jennifer
Chad Lindberg 	...Matthew
Daniel Franzese ...Stanley
Tracey Walter 	...Earl Woodason
Jeff Branson 	...Johnny
Rodney Eastman 	...Andy
Andrew Howard 	...Sheriff Storch
Saxon Sharbino 	...Chastity
Mollie Milligan ...Mrs. Storch
Amber Dawn Landrum ...Gas Station Girl 




A writer who is brutalized during her cabin retreat seeks revenge on her attackers, who left her for dead. 




[img]http://img201.imageshack.us/img201/5004/spsp.png[/img]
[img]http://img148.imageshack.us/img148/3181/spsssppsppsp.png[/img]
[img]http://img266.imageshack.us/img266/8914/12096271.png[/img]
[img]http://img412.imageshack.us/img412/8537/spspsp.png[/img]
[img]http://img690.imageshack.us/img690/1885/spssppsp.png[/img]
[img]http://img248.imageshack.us/img248/2628/spsspsppsp.png[/img]






Greetz

iNK,LUSi,,MAGNET,CLASSiFiED,THC,LEGi0N,T0XiC,IMAGiNE,ViSiON,WBZ,FLAWL3SS,NOVA
Vik,Rapeseed,D2U,SAFC,goldadvance,MEMORY100,KaN1vE,Unevano,Pinnz,Wayne,Mr Hive
and all P2P groups 
Great Work Guys :D